<?xml version="1.0" encoding="UTF-8" standalone="no"?>
<!-- Created with Inkscape (http://www.inkscape.org/) -->

<svg
   xmlns:dc="http://purl.org/dc/elements/1.1/"
   xmlns:cc="http://creativecommons.org/ns#"
   xmlns:rdf="http://www.w3.org/1999/02/22-rdf-syntax-ns#"
   xmlns:svg="http://www.w3.org/2000/svg"
   xmlns="http://www.w3.org/2000/svg"
   xmlns:sodipodi="http://sodipodi.sourceforge.net/DTD/sodipodi-0.dtd"
   xmlns:inkscape="http://www.inkscape.org/namespaces/inkscape"
   width="32px"
   height="32px"
   id="svg2990"
   version="1.1"
   inkscape:version="0.48.3.1 r9886"
   sodipodi:docname="gedenkt_small.svg">
  <defs
     id="defs2992" />
  <sodipodi:namedview
     id="base"
     pagecolor="#ffffff"
     bordercolor="#666666"
     borderopacity="1.0"
     inkscape:pageopacity="0.0"
     inkscape:pageshadow="2"
     inkscape:zoom="11.197802"
     inkscape:cx="16"
     inkscape:cy="16"
     inkscape:current-layer="layer1"
     showgrid="true"
     inkscape:grid-bbox="true"
     inkscape:document-units="px"
     inkscape:window-width="1920"
     inkscape:window-height="1033"
     inkscape:window-x="0"
     inkscape:window-y="25"
     inkscape:window-maximized="1" />
  <metadata
     id="metadata2995">
    <rdf:RDF>
      <cc:Work
         rdf:about="">
        <dc:format>image/svg+xml</dc:format>
        <dc:type
           rdf:resource="http://purl.org/dc/dcmitype/StillImage" />
        <dc:title></dc:title>
      </cc:Work>
    </rdf:RDF>
  </metadata>
  <g
     id="layer1"
     inkscape:label="Layer 1"
     inkscape:groupmode="layer">
    <path
       style="fill:#000000;stroke:none"
       id="path2989"
       d="m 10.955561,2.4867414 c 0.06606,0.088529 0.130287,0.1782569 0.191378,0.2703118 0.07769,0.1199058 0.159851,0.2368122 0.241093,0.3543171 0.09122,0.1320369 0.181086,0.2649015 0.267056,0.4004329 0.0915,0.143254 0.181205,0.2876183 0.270182,0.432448 0.0938,0.1539047 0.184024,0.3099222 0.274036,0.4660569 0.09286,0.1599203 0.174875,0.3257397 0.257778,0.490936 0.06893,0.1384313 0.131891,0.2797499 0.206933,0.4150527 0.03913,0.067408 0.07373,0.094538 0.146845,0.066888 0.07366,-0.032891 0.145677,-0.068946 0.215346,-0.1097835 0.396235,-0.217456 0.881157,-0.5041784 -0.999599,0.5774016 -0.01699,0.00977 0.03393,-0.01965 0.05062,-0.029936 0.0448,-0.027614 0.06139,-0.039735 0.105172,-0.069666 0.118324,-0.081474 0.23659,-0.1630357 0.355292,-0.2439609 0.133935,-0.092353 0.264808,-0.1890325 0.395522,-0.2858607 0.146354,-0.1103811 0.290396,-0.2238214 0.435741,-0.3355555 0.155245,-0.1180011 0.311614,-0.2343818 0.472552,-0.3445162 0.536334,-0.349828 1.089577,-0.6760042 1.658493,-0.9697989 0.2063,-0.1031723 0.421675,-0.1869857 0.637847,-0.2668852 0.216931,-0.079906 0.438656,-0.1451515 0.66217,-0.2036592 0.225937,-0.053462 0.455839,-0.085703 0.687062,-0.1041124 0.221064,-0.017506 0.442994,-0.011632 0.663845,0.00509 0.205982,0.013241 0.40868,0.050838 0.610032,0.094332 0.186943,0.043269 0.368622,0.104207 0.544857,0.1796222 0.163439,0.072631 0.31659,0.1661427 0.462766,0.2686682 0.139184,0.096455 0.260291,0.2141734 0.371556,0.3410703 0.105594,0.1222665 0.184019,0.2635999 0.249659,0.410359 0.06546,0.1475473 0.09371,0.3057934 0.114162,0.4647086 0.01918,0.1675431 0.01042,0.3364303 0.0028,0.5043854 -0.0018,0.1155006 -0.02151,0.2321792 -0.0043,0.3472317 0.0021,0.00469 0.002,0.011384 0.0064,0.014065 0.0078,0.00475 0.01304,-0.012813 0.02016,-0.01852 0.02593,-0.02078 0.056,-0.032647 0.08651,-0.044787 0.105096,-0.047215 0.206514,-0.1021315 0.30932,-0.1540815 0.150907,-0.078563 0.297968,-0.1647138 0.445186,-0.2500432 0.18698,-0.1118465 0.377623,-0.2157688 0.575268,-0.3073944 0.261863,-0.1190669 0.528649,-0.2265304 0.797791,-0.3278777 0.261538,-0.1056533 0.529994,-0.1914713 0.799308,-0.2745651 0.273304,-0.085571 0.55223,-0.1496219 0.832678,-0.2064596 0.255034,-0.052616 0.513055,-0.088799 0.772299,-0.1123173 0.239954,-0.021436 0.481078,-0.020046 0.721412,-0.00729 0.227225,0.015674 0.451482,0.05555 0.672507,0.1092887 0.212771,0.054414 0.417977,0.1323169 0.621522,0.2137725 0.192395,0.076717 0.372926,0.1777409 0.550739,0.2830212 0.201853,0.1134238 0.367886,0.2723241 0.526658,0.4382218 0.173283,0.185932 0.325067,0.3902901 0.469119,0.599254 0.135062,0.1982022 0.256104,0.4049347 0.364662,0.6186678 0.103452,0.2043141 0.179837,0.420254 0.243502,0.6397609 0.05799,0.1990971 0.07839,0.4043421 0.07648,0.6108604 -0.0012,0.1969261 -0.06865,0.3781779 -0.156942,0.5509724 -0.0926,0.17148 -0.216489,0.3217398 -0.351392,0.4611734 -0.474246,0.4423686 -1.108894,0.720041 -1.65375,1.0325794 -0.2059,0.1037244 -0.426201,0.1720087 -0.647703,0.2331309 -0.21058,0.055539 -0.424029,0.099086 -0.636165,0.1481137 -0.06779,0.019606 -0.13898,0.031051 -0.202612,0.063169 -0.01364,0.00689 -0.052,0.032121 -0.03875,0.024503 1.109898,-0.6381815 1.342349,-0.9864657 1.083379,-0.6081248 -0.03122,0.058144 0.02982,0.1027472 0.06745,0.1401875 0.104629,0.1024946 0.211842,0.2022144 0.315023,0.3062283 0.13376,0.1336014 0.259834,0.2743934 0.383109,0.4176204 0.129813,0.152038 0.246335,0.314634 0.355554,0.481881 0.111343,0.178818 0.204599,0.36809 0.294428,0.558379 0.08428,0.183531 0.148296,0.37503 0.200497,0.569834 0.04938,0.181334 0.06183,0.367383 0.05335,0.554224 -0.01263,0.189729 -0.08061,0.366606 -0.158645,0.537739 -0.08598,0.182062 -0.203812,0.345289 -0.331068,0.50025 -0.160303,0.193029 -0.361354,0.343744 -0.563509,0.489597 -0.595054,0.412488 -1.232959,0.758344 -1.863979,1.112014 -0.257024,0.142621 -0.524873,0.263762 -0.798286,0.371074 -0.320998,0.119318 -0.653014,0.205347 -0.985241,0.286752 -0.402635,0.0982 -0.810683,0.168729 -1.221416,0.222045 -0.404114,0.05291 -0.810859,0.0783 -1.218194,0.08294 -0.373284,0.0037 -0.744217,-0.03772 -1.113508,-0.08718 -0.331654,-0.04413 -0.657597,-0.119177 -0.979017,-0.210779 -0.291889,-0.08445 -0.567606,-0.211301 -0.840818,-0.342191 C 18.131648,15.2064 17.890045,15.057578 17.65419,14.900812 17.438851,14.757957 17.238223,14.595071 17.041416,14.42808 16.900555,14.303542 16.763632,14.174701 16.61,14.065832 c -0.04922,-0.02601 -0.133886,-0.0995 -0.184173,-0.0423 -0.162004,0.420871 -0.0024,-0.0082 1.097166,-0.613516 0.01335,-0.0073 -0.0154,0.02632 -0.02217,0.03997 -0.01959,0.03949 -0.03083,0.08038 -0.04146,0.122901 -0.02078,0.10523 -0.03814,0.211047 -0.05946,0.316174 -0.02583,0.134182 -0.06685,0.263617 -0.122973,0.388006 -0.066,0.144758 -0.16473,0.267192 -0.275962,0.379194 -0.456807,0.395073 -1.002357,0.686452 -1.549198,0.937208 -0.178249,0.07996 -0.367259,0.132181 -0.558355,0.170401 -0.244861,0.0449 -0.493988,0.06052 -0.741995,0.07782 -0.257961,0.02357 -0.516769,0.01328 -0.774657,-0.0042 -0.304337,-0.02521 -0.605484,-0.07847 -0.904031,-0.141355 -0.307068,-0.06577 -0.607113,-0.158776 -0.903513,-0.261586 -0.271103,-0.09606 -0.535017,-0.209636 -0.7936,-0.335207 C 10.533817,14.981818 10.304032,14.842271 10.079297,14.695231 9.858597,14.547275 9.6587399,14.372162 9.4702345,14.185641 9.2846802,13.999783 9.126429,13.79023 8.9747073,13.576636 8.8339139,13.377404 8.7124048,13.16587 8.5998385,12.949733 8.4992254,12.754609 8.4163861,12.551273 8.3404735,12.345511 8.2752552,12.169114 8.2290437,11.987313 8.2059482,11.800801 c -0.011175,-0.109909 -0.011835,-0.220444 -0.00934,-0.330768 -0.092092,-0.475133 1.2135316,-1.073028 1.1974385,-0.54711 -0.00286,0.114234 -0.041896,0.218383 -0.093729,0.31847 -0.067033,0.118317 -0.1568021,0.221031 -0.249191,0.319941 -0.1076075,0.113565 -0.2343231,0.205219 -0.364237,0.291169 C 8.1666028,12.171058 7.651045,12.504607 7.0922054,12.750924 6.9160226,12.821594 6.7337099,12.876265 6.5518077,12.93015 6.3505369,12.98754 6.1412932,13.00361 5.9329933,13.00682 5.7093591,13.01302 5.4879486,12.9836 5.2693142,12.93967 5.0538484,12.896318 4.8520687,12.810604 4.6560024,12.713842 4.468168,12.618226 4.2945247,12.499222 4.1273643,12.371606 3.9607908,12.24234 3.8157006,12.089245 3.6757569,11.932344 3.5356449,11.773617 3.4148614,11.599665 3.3019381,11.420988 3.1852181,11.239436 3.0845327,11.048658 2.9909002,10.854416 2.8986838,10.657312 2.8157789,10.456034 2.7434027,10.250846 2.6736241,10.043821 2.6255368,9.8305333 2.5822707,9.6166785 2.5381209,9.4023026 2.5099856,9.1852732 2.4907289,8.9673902 2.4731616,8.7572992 2.4823852,8.5471767 2.508333,8.3383725 2.5353995,8.1296717 2.5984755,7.929774 2.6782734,7.7359276 2.7570268,7.5417949 2.8776774,7.3720626 3.0089209,7.2106447 3.1349175,7.0568135 3.2838177,6.9260125 3.4428012,6.8077024 3.964176,6.4659165 4.4909987,6.1089019 5.0756973,5.8877814 5.2793671,5.8118074 5.498285,5.8021754 5.7131637,5.7929934 c 0.2301408,-0.00851 0.4582292,0.021066 0.6830754,0.067188 0.1895873,0.036876 0.371406,0.1028309 0.5571666,0.1540838 0.089167,0.018002 0.1939039,0.039713 0.26308,-0.033048 C 4.9818747,7.23935 6.1347398,6.9207828 6.1837183,6.4401422 6.1890459,6.3345848 6.1752867,6.2294803 6.1610092,6.125151 6.1383443,5.9860794 6.115326,5.8471058 6.0956613,5.7075704 6.0717511,5.5468711 6.0636783,5.3844749 6.0563605,5.2223553 6.0474737,5.0464758 6.0628867,4.8710962 6.0863564,4.69699 6.110881,4.5196396 6.1574354,4.3466457 6.2101015,4.1758905 6.259625,4.0211744 6.3264048,3.8732262 6.4049324,3.7312841 6.4825718,3.5941639 6.5832801,3.4732799 6.690865,3.3590129 6.8027205,3.242362 6.9321248,3.1460963 7.0664314,3.0572476 7.5779193,2.7354303 8.0809981,2.3784018 8.6524785,2.1758736 8.8393071,2.1160907 9.031889,2.0797568 9.2256532,2.0518713 9.4276497,2.0243143 9.631631,2.0121553 9.8354003,2.0162103 c 0.1890067,0.0027 0.3762537,0.030829 0.5600757,0.073285 0.175082,0.041258 0.339076,0.1137014 0.496446,0.1992566 0.152218,0.08397 0.288327,0.1922502 0.416419,0.308924 0.127107,0.1147661 0.235731,0.246834 0.335241,0.3856329 0.09791,0.1353147 0.16799,0.2863315 0.229314,0.4408344 0.05879,0.1529901 0.101053,0.3114437 0.139269,0.47059 0.03506,0.1572867 0.07236,0.3140409 0.105918,0.4716606 0.02141,0.1059444 0.01098,0.052858 0.03128,0.1592591 0,0 -1.172428,0.6251157 -1.172428,0.6251157 l 0,0 C 10.957511,5.0461092 10.967508,5.0983352 10.946947,4.9940897 10.914252,4.837327 10.877035,4.6816163 10.8427,4.5252194 10.807015,4.3718031 10.767627,4.2189695 10.712289,4.0712655 10.65618,3.9265683 10.592098,3.7849766 10.49983,3.6591094 10.405163,3.5284081 10.301256,3.4047418 10.179612,3.2979836 10.057107,3.1903794 9.9269798,3.0912377 9.7811917,3.0168199 9.6298254,2.9412983 9.4723666,2.8794088 9.3055155,2.8474554 9.1263444,2.8137834 8.9450125,2.7926223 8.7623448,2.7958222 8.5625372,2.7999122 8.3628186,2.8146482 8.1656055,2.8481512 7.976207,2.8818322 7.7872229,2.9238282 7.6083568,2.9962421 c -0.068785,0.030146 -0.088877,0.03772 -0.155783,0.071972 -0.025016,0.012807 -0.098514,0.054123 -0.074223,0.03999 C 9.2416968,2.0240035 8.6961951,2.3391421 8.3041096,2.574302 8.1711261,2.6601049 8.0346939,2.7413471 7.9189644,2.8507632 7.8077788,2.9539644 7.703426,3.0652615 7.6200341,3.192599 7.5348822,3.3239116 7.4657654,3.4635872 7.4119821,3.610733 7.3551004,3.7739874 7.3071332,3.9407196 7.2776249,4.111265 c -0.025441,0.1665133 -0.045925,0.3340212 -0.040185,0.502916 0.00641,0.1580812 0.012183,0.3166574 0.034121,0.4735045 0.019285,0.1389129 0.041595,0.2773374 0.066294,0.4153942 0.018368,0.1112624 0.03396,0.2234174 0.036206,0.3363237 0.008,0.607187 -0.5306172,0.6086363 -1.2054064,0.9692468 C 6.0622824,6.8144597 5.9579177,6.7974263 5.856491,6.7647073 5.6762452,6.7095457 5.496612,6.6507004 5.310316,6.6187755 5.0909765,6.5815613 4.8690996,6.5612669 4.6464891,6.5776254 4.4365916,6.5935045 4.2268896,6.6193821 4.0339408,6.7098167 c -0.078496,0.036361 -0.088863,0.039947 -0.1654579,0.080302 -0.027355,0.014412 -0.1081347,0.060008 -0.08141,0.044458 C 5.6461144,5.7528752 5.0710367,6.0849974 4.6769376,6.3212685 4.514586,6.4289834 4.3599202,6.5473162 4.2297358,6.693525 4.0960441,6.8431566 3.9679675,6.9995291 3.8831896,7.1831036 3.7990837,7.3655486 3.7289838,7.553361 3.6979101,7.752962 c -0.031307,0.1997604 -0.045032,0.4010675 -0.031271,0.6032639 0.01562,0.2133802 0.041802,0.4259487 0.083939,0.6358364 0.041114,0.2082407 0.086528,0.4160236 0.1528088,0.6179505 0.068992,0.2011711 0.1504293,0.3976982 0.2399977,0.5905912 0.090955,0.1899 0.18956,0.375929 0.3038997,0.552979 0.1090248,0.172437 0.2262397,0.339853 0.3623058,0.492331 0.1354338,0.149913 0.2763003,0.295731 0.4385239,0.417215 0.1622236,0.120701 0.3310739,0.232591 0.5137507,0.320395 0.1898817,0.08808 0.3856794,0.162464 0.5931739,0.197108 0.2138244,0.03558 0.4297911,0.05565 0.6468102,0.04323 0.2032211,-0.0129 0.4054173,-0.0394 0.5993239,-0.104669 0.1796755,-0.05647 0.3602301,-0.112869 0.5304164,-0.194573 0.069868,-0.03395 0.086144,-0.04106 0.1547367,-0.0776 0.025473,-0.01357 0.1008797,-0.05612 0.075918,-0.04163 -1.8606464,1.079962 -1.3087557,0.759082 -0.9137666,0.527739 0.1311329,-0.07791 0.2602359,-0.160354 0.3739088,-0.262816 0.094982,-0.08857 0.1840599,-0.183969 0.2605134,-0.289183 0.05551,-0.07992 0.1060027,-0.162855 0.1195323,-0.26119 0.054713,-0.498678 -0.012437,-0.0073 1.2156157,-0.666486 0.011885,-0.0064 -0.04329,-0.0417 -0.028137,0.01782 -0.010833,0.104333 -0.011095,0.209573 -0.00616,0.314275 0.013804,0.177448 0.055583,0.349695 0.1158954,0.517181 0.07285,0.200967 0.1525137,0.399599 0.2498507,0.590164 0.1089455,0.211076 0.2268019,0.417617 0.3640785,0.611805 0.147391,0.207192 0.301667,0.410047 0.483065,0.58915 0.184221,0.17893 0.37935,0.346684 0.59489,0.487291 0.221579,0.142613 0.448613,0.276751 0.686755,0.390173 0.255255,0.121223 0.515581,0.231204 0.782805,0.323561 0.293225,0.09847 0.59001,0.187064 0.893612,0.247918 0.295818,0.05822 0.594066,0.10751 0.895511,0.124161 0.255106,0.01198 0.510464,0.0142 0.765056,-0.01028 0.245376,-0.01928 0.492027,-0.03855 0.732129,-0.09566 0.18621,-0.04881 0.370653,-0.106279 0.541328,-0.197108 0.43698,-0.238201 0.06561,-0.03661 -0.987575,0.574898 -0.0239,0.01388 0.04841,-0.02669 0.0722,-0.04073 0.06947,-0.04101 0.135736,-0.08685 0.198146,-0.138013 0.114177,-0.09703 0.221323,-0.201407 0.293953,-0.334404 0.06171,-0.113064 0.111834,-0.230296 0.13516,-0.3579 0.02466,-0.10333 0.0416,-0.207975 0.0594,-0.312651 0.0778,-0.523824 0.612563,-1.063126 1.238624,-0.928479 0.08552,0.02858 0.164163,0.0726 0.23566,0.127649 0.14961,0.116901 0.286323,0.248451 0.429272,0.373205 0.193515,0.163022 0.391094,0.321573 0.603042,0.460342 0.232148,0.152071 0.469722,0.296649 0.720328,0.416632 0.268033,0.126745 0.540255,0.245635 0.827048,0.324034 0.317385,0.08641 0.638985,0.156457 0.965712,0.197237 0.365073,0.0463 0.732015,0.08068 1.100558,0.07264 0.403776,-0.0097 0.806869,-0.03831 1.207124,-0.09389 0.408683,-0.05791 0.814585,-0.133655 1.214814,-0.235426 0.33073,-0.08547 0.661306,-0.175908 0.978309,-0.304644 0.269735,-0.113579 0.534535,-0.238675 0.788362,-0.384847 0.423817,-0.241885 0.463878,-0.265089 -0.877201,0.508816 -0.04203,0.02425 0.08384,-0.04888 0.12529,-0.07411 0.122176,-0.07436 0.241879,-0.152831 0.36046,-0.232757 0.201529,-0.137263 0.40364,-0.278883 0.571351,-0.457321 0.130222,-0.144021 0.250811,-0.296792 0.343877,-0.467991 0.0796,-0.155938 0.154875,-0.31662 0.179487,-0.491796 0.01662,-0.173413 0.01129,-0.34678 -0.0322,-0.516516 -0.04798,-0.187743 -0.107805,-0.372195 -0.187829,-0.549005 -0.08672,-0.184901 -0.17688,-0.368864 -0.285341,-0.542181 -0.106509,-0.162091 -0.220765,-0.319148 -0.347237,-0.466376 -0.121726,-0.140403 -0.24645,-0.27819 -0.379005,-0.40854 -0.105109,-0.10358 -0.214849,-0.202151 -0.320437,-0.305197 -0.07234,-0.0762 -0.135789,-0.158464 -0.137311,-0.2685784 0.08809,-0.555492 0.907239,-0.7268395 1.42104,-0.8497231 0.210643,-0.04674 0.421937,-0.09166 0.628991,-0.1528769 0.217245,-0.06704 0.432048,-0.1432858 0.630768,-0.2555341 -1.978421,1.1468565 -1.003731,0.6344228 -0.603556,0.3042395 0.138054,-0.1274812 0.265586,-0.2654182 0.36581,-0.4253788 0.0915,-0.1522894 0.173758,-0.3130094 0.184134,-0.4939485 0.01,-0.1941115 -0.0036,-0.3875546 -0.0559,-0.5757208 C 28.094925,7.2469 28.023388,7.0380391 27.924021,6.8409153 27.818453,6.632311 27.700473,6.4306573 27.568979,6.2372044 27.42907,6.0341835 27.281395,5.8357419 27.111136,5.656833 26.957835,5.5006927 26.795144,5.3555296 26.601314,5.2506184 26.427381,5.1503481 26.249882,5.0562215 26.062065,4.9841563 25.862969,4.9062703 25.661151,4.8343116 25.452377,4.7865841 c -0.216631,-0.046636 -0.436039,-0.081277 -0.657829,-0.089799 -0.23672,-0.00695 -0.473837,-0.00433 -0.70949,0.021975 -0.255882,0.028925 -0.510575,0.067307 -0.762323,0.122109 -0.277974,0.059837 -0.553775,0.1290943 -0.82456,0.2163719 -0.267763,0.08477 -0.532821,0.1772557 -0.793949,0.2808597 -0.267731,0.1041106 -0.533681,0.2132838 -0.792559,0.3380669 -0.195217,0.098423 -0.38422,0.2079599 -0.573221,0.3177616 -0.149136,0.084833 -0.29763,0.1711126 -0.452132,0.2459794 -0.106295,0.052849 -0.212848,0.1102699 -0.33042,0.1333895 -0.105821,0.01342 -0.1882,-0.029225 -0.229765,-0.1315995 -0.03001,-0.1251693 -0.01381,-0.2521636 -0.0057,-0.3792819 0.0081,-0.1611643 0.01906,-0.3230836 0.0069,-0.4842929 -0.01644,-0.146528 -0.037,-0.2933795 -0.09593,-0.4299946 C 19.172917,4.8131687 19.100885,4.6839747 19.003034,4.5731549 18.89716,4.4553461 18.781326,4.347367 18.649043,4.2593108 18.507636,4.1646086 18.360601,4.0774568 18.202352,4.0136287 18.030342,3.945906 17.853608,3.8908459 17.672337,3.8536266 c -0.197519,-0.039381 -0.396874,-0.069197 -0.59826,-0.079477 -0.216957,-0.010481 -0.434511,-0.011861 -0.65084,0.011186 -0.227014,0.025288 -0.453075,0.061034 -0.67355,0.1220884 -0.220779,0.061999 -0.439649,0.1308829 -0.65369,0.2134966 -0.213941,0.083392 -0.426923,0.1707866 -0.628625,0.28122 -0.445856,0.2465423 -0.111774,0.062587 0.952246,-0.5532049 0.02946,-0.017051 -0.05918,0.033663 -0.08851,0.050936 -0.08608,0.050691 -0.170932,0.1035434 -0.254463,0.1583299 -0.163232,0.1054195 -0.320502,0.2189348 -0.47519,0.3364885 -0.146265,0.110141 -0.291921,0.2211949 -0.433496,0.3373482 -0.131746,0.095185 -0.260445,0.1945822 -0.393377,0.2881103 -0.116467,0.083406 -0.236463,0.1617659 -0.353451,0.2444345 -0.456944,0.3149285 -0.937725,0.5951136 -1.435348,0.8421127 -0.08152,0.035573 -0.166302,0.071605 -0.257186,0.057755 C 11.628103,6.1357067 11.559559,6.0702999 11.509229,5.9790756 11.435689,5.841234 11.373465,5.6979699 11.303967,5.5581059 11.222067,5.3952802 11.141534,5.2315821 11.049918,5.0739052 10.960336,4.9189612 10.870664,4.7640651 10.777282,4.6113639 10.688377,4.4672214 10.598778,4.3235248 10.50728,4.1810086 10.422052,4.047135 10.333054,3.9158318 10.242604,3.78544 10.16048,3.667566 10.077429,3.5503121 9.9985158,3.430243 9.9382438,3.3409006 9.875064,3.2537093 9.8086059,3.1688512 c 0,0 1.1469551,-0.6821098 1.1469551,-0.6821098 z"
       inkscape:connector-curvature="0"
       inkscape:export-xdpi="90"
       inkscape:export-ydpi="90" />
    <path
       style="fill:#000000;stroke:none"
       id="path2991"
       d="m 15.572905,20.172644 c 0.07631,-0.07747 0.163412,-0.141863 0.250786,-0.205951 0.465012,-0.321843 0.949881,-0.628335 1.47515,-0.839831 0.13944,-0.04341 0.282428,-0.07507 0.427087,-0.09464 0.156213,-0.02354 0.313798,-0.02308 0.471167,-0.0173 0.162174,0.0058 0.319663,0.04054 0.476325,0.07984 0.162274,0.04216 0.319687,0.09963 0.474159,0.164348 0.149201,0.065 0.290604,0.144901 0.426362,0.234283 0.137499,0.08592 0.262673,0.188486 0.382441,0.297246 0.120508,0.112897 0.226804,0.239581 0.32912,0.368844 0.104597,0.132499 0.190574,0.277663 0.268721,0.426869 0.0731,0.143641 0.120787,0.297223 0.155706,0.453985 0.03254,0.142706 0.02839,0.287018 0.0055,0.430431 -0.02599,0.149488 -0.09127,0.283533 -0.175961,0.407751 -0.112582,0.144768 -0.258054,0.25714 -0.40498,0.364601 -0.519654,0.34881 -1.065021,0.662884 -1.626839,0.938999 -0.167233,0.08013 -0.339665,0.149093 -0.517126,0.202835 -0.17233,0.05119 -0.348408,0.08571 -0.526241,0.11042 -0.175705,0.02785 -0.353086,0.03156 -0.530379,0.02298 -0.175157,-0.01038 -0.344019,-0.05578 -0.507866,-0.116069 -0.157613,-0.0542 -0.301922,-0.136761 -0.440553,-0.227917 -0.137776,-0.09091 -0.256217,-0.205051 -0.37238,-0.321233 -0.11424,-0.114396 -0.216568,-0.239103 -0.31024,-0.370642 -0.09598,-0.137042 -0.159312,-0.291231 -0.209339,-0.44984 -0.04499,-0.149906 -0.06259,-0.305689 -0.07194,-0.461329 -0.01057,-0.151209 0.01437,-0.299949 0.04756,-0.446744 0.03306,-0.145477 0.08645,-0.284099 0.153739,-0.416847 0.06912,-0.132401 0.161289,-0.249554 0.261945,-0.359045 0.09978,-0.109522 0.211861,-0.206554 0.32883,-0.297094 0.481798,-0.336579 0.988731,-0.649041 1.533039,-0.872486 0.02422,-0.0081 0.04844,-0.0162 0.07266,-0.0243 0,0 -1.046237,0.820103 -1.046237,0.820103 l 0,0 c -0.02281,0.0099 -0.04563,0.01975 -0.06844,0.02962 -0.0593,0.02814 -0.07683,0.03553 -0.134585,0.06662 -0.0219,0.01179 -0.08658,0.049 -0.06507,0.03651 1.869698,-1.085595 1.335158,-0.781953 0.944869,-0.545345 -0.120394,0.08147 -0.234563,0.171631 -0.338024,0.27404 -0.09973,0.102671 -0.201193,0.204057 -0.275245,0.327967 -0.07247,0.121338 -0.134276,0.248067 -0.168131,0.386169 -0.03788,0.13409 -0.0684,0.271269 -0.0652,0.411508 0.0053,0.14557 0.01711,0.291655 0.05615,0.43264 0.04243,0.146004 0.099,0.287484 0.187769,0.412192 0.09006,0.125172 0.188994,0.243239 0.29879,0.351743 0.11027,0.109331 0.224818,0.214438 0.35713,0.297087 0.133264,0.08251 0.272515,0.154317 0.422568,0.201605 0.157378,0.04916 0.318795,0.08282 0.484501,0.08329 0.173002,2.73e-4 0.345305,-0.01174 0.515862,-0.04222 0.17361,-0.03059 0.345658,-0.07074 0.512717,-0.127598 0.17237,-0.06253 0.34182,-0.133084 0.504449,-0.218132 0.08008,-0.04211 0.08641,-0.0448 0.165542,-0.08895 0.02748,-0.01533 0.109347,-0.06235 0.08213,-0.04656 -1.86,1.079472 -1.281967,0.752787 -0.89088,0.512192 0.147293,-0.09832 0.292925,-0.201552 0.41692,-0.328884 0.09525,-0.09927 0.16548,-0.215299 0.201448,-0.349117 0.03083,-0.126156 0.04515,-0.253868 0.01959,-0.382769 -0.02895,-0.146016 -0.06959,-0.289274 -0.137037,-0.422768 -0.07392,-0.141894 -0.15564,-0.279754 -0.255848,-0.404981 -0.09855,-0.122962 -0.20083,-0.243575 -0.317841,-0.349595 -0.1163,-0.102654 -0.238705,-0.197788 -0.371043,-0.279189 -0.131767,-0.08194 -0.268444,-0.15572 -0.412555,-0.21387 -0.151108,-0.0588 -0.304514,-0.111778 -0.46293,-0.14755 -0.151365,-0.03354 -0.304662,-0.05647 -0.460139,-0.05663 -0.153131,-1.96e-4 -0.306134,0.0089 -0.456866,0.03768 -0.139054,0.0286 -0.278875,0.06046 -0.407926,0.12139 -0.05201,0.02501 -0.06613,0.03094 -0.116558,0.05862 -0.01864,0.01023 -0.07374,0.04238 -0.05534,0.03172 1.875761,-1.087638 1.366465,-0.800854 0.978501,-0.56511 -0.0872,0.05917 -0.175889,0.117617 -0.254624,0.187912 0,0 -1.234826,0.506502 -1.234826,0.506502 z"
       inkscape:connector-curvature="0"
       inkscape:export-xdpi="90"
       inkscape:export-ydpi="90" />
    <path
       style="fill:#000000;stroke:none"
       id="path2993"
       d="m 9.4318397,24.721388 c -0.09721,0.06533 -0.193211,0.131424 -0.28445,0.20498 -0.106613,0.08594 -0.194639,0.190246 -0.274191,0.30094 -0.08085,0.116114 -0.141834,0.243852 -0.194755,0.37459 -0.05051,0.138911 -0.08449,0.283232 -0.114689,0.427713 -0.03052,0.153671 -0.05061,0.309113 -0.06891,0.464627 -0.01588,0.152902 -0.0236,0.30666 -0.02052,0.460349 0.0015,0.143512 0.02999,0.283421 0.06931,0.420759 0.03755,0.132531 0.106193,0.25083 0.179952,0.365804 0.07391,0.113755 0.1674,0.212164 0.26725,0.303205 0.10359,0.09235 0.222797,0.163082 0.345497,0.22654 0.132775,0.06717 0.273037,0.116213 0.417232,0.151787 0.1588331,0.03773 0.3203413,0.06061 0.4832423,0.06932 0.152469,0.0024 0.30401,-0.01912 0.452617,-0.05157 0.144773,-0.02962 0.284105,-0.08044 0.420016,-0.137568 -0.170043,0.123984 0.384717,-0.212925 0.200412,-0.107122 -1.9005003,1.09101 -1.3183722,0.785223 -0.940905,0.533696 0.12917,-0.08851 0.24179,-0.19716 0.348327,-0.311176 0.106922,-0.115092 0.191347,-0.247435 0.27215,-0.381388 0.08193,-0.13658 0.148894,-0.281111 0.207189,-0.429107 0.05617,-0.148566 0.09052,-0.303404 0.116643,-0.459642 0.0275,-0.159144 0.03394,-0.320373 0.03113,-0.481505 -0.0034,-0.166519 -0.02928,-0.331185 -0.06536,-0.493427 -0.03636,-0.160778 -0.102973,-0.311287 -0.176922,-0.457737 -0.06923,-0.138003 -0.165323,-0.257634 -0.265273,-0.374035 -0.09193,-0.109697 -0.200871,-0.200048 -0.322194,-0.274979 -0.113315,-0.06653 -0.237193,-0.110712 -0.361939,-0.150162 -0.134871,-0.04016 -0.2721803,-0.0722 -0.4112963,-0.09336 -0.142125,-0.02112 -0.285129,-0.03119 -0.428648,-0.03416 -0.145101,0.0024 -0.289876,0.01764 -0.432971,0.04129 -0.143748,0.02175 -0.284279,0.05679 -0.418904,0.111618 -0.401319,0.215262 -0.925913,0.52574 0.950866,-0.548511 0.0216,-0.01236 -0.04312,0.02487 -0.06424,0.03803 -0.05618,0.03501 -0.07381,0.04885 -0.127896,0.08741 -0.12769,0.09481 -0.232463,0.21404 -0.328141,0.339989 -0.09168,0.123916 -0.165216,0.258865 -0.2188,0.403149 -0.04497,0.139542 -0.05803,0.285922 -0.06176,0.431646 -0.0035,0.138007 0.0127,0.274086 0.04172,0.408656 0.01927,0.08707 0.05238,0.169833 0.08538,0.252342 0,0 -1.160981,0.648847 -1.160981,0.648847 l 0,0 c -0.03624,-0.08885 -0.07323,-0.177742 -0.09598,-0.271274 -0.03337,-0.143363 -0.05691,-0.287901 -0.05527,-0.435725 -0.0017,-0.157237 0.0095,-0.31445 0.04442,-0.468196 0.04367,-0.157489 0.110881,-0.304625 0.202288,-0.440621 0.09089,-0.135816 0.190685,-0.265882 0.313463,-0.374849 0.444295,-0.384604 0.978362,-0.674634 1.523973,-0.888415 0.142149,-0.04213 0.287501,-0.07194 0.4346741,-0.09033 0.1482682,-0.01668 0.2972642,-0.03073 0.4466582,-0.02253 0.147295,0.0078 0.294295,0.02275 0.439536,0.049 0.142808,0.02881 0.284908,0.06218 0.422902,0.109421 0.132355,0.04709 0.262985,0.100557 0.380591,0.178631 0.126792,0.08765 0.24257,0.18858 0.341244,0.307618 0.105983,0.125014 0.206208,0.254833 0.280723,0.401697 0.07878,0.155789 0.15026,0.315747 0.192036,0.485966 0.04046,0.169492 0.07058,0.341849 0.07775,0.516286 0.0074,0.167997 0.0049,0.33665 -0.01987,0.503317 -0.02337,0.16346 -0.05253,0.325993 -0.105421,0.48294 -0.05211,0.155816 -0.118281,0.306543 -0.197277,0.4507 -0.07878,0.140251 -0.160149,0.279937 -0.26172,0.405232 -0.102067,0.122367 -0.211676,0.239125 -0.337004,0.338163 -0.465602,0.366315 -0.995526,0.653937 -1.541122,0.883215 -0.1418922,0.05059 -0.2861433,0.09461 -0.4354133,0.117663 -0.156394,0.0232 -0.314484,0.03902 -0.472582,0.02323 -0.167764,-0.01785 -0.334625,-0.0447 -0.497438,-0.08986 -0.150151,-0.04525 -0.297189,-0.100364 -0.43497,-0.176099 -0.129666,-0.07259 -0.255008,-0.153202 -0.363939,-0.255174 -0.105808,-0.100725 -0.205355,-0.208331 -0.284424,-0.331831 -0.08019,-0.125588 -0.154617,-0.255055 -0.198364,-0.398552 -0.04448,-0.146786 -0.07929,-0.296689 -0.0843,-0.4507 -0.0078,-0.159483 -9.68e-4,-0.318953 0.01207,-0.478055 0.01719,-0.158527 0.0361,-0.316957 0.06374,-0.474059 0.02755,-0.150404 0.06165,-0.299668 0.105294,-0.446281 0.04612,-0.140371 0.106055,-0.275934 0.181423,-0.403224 0.07434,-0.120384 0.156561,-0.236041 0.259804,-0.333761 0.08559,-0.07956 0.174519,-0.156508 0.275766,-0.215768 0,0 1.241549,-0.489604 1.241549,-0.489604 z"
       inkscape:connector-curvature="0"
       inkscape:export-xdpi="90"
       inkscape:export-ydpi="90" />
    <path
       style="fill:#ffffff;stroke:#ffffff;stroke-width:0.08930324"
       d="M 20.855226,14.994464 C 19.8126,14.766218 19.040398,14.369856 18.021772,13.54009 c -0.437421,-0.356321 -0.525485,-0.39333 -0.836635,-0.351596 -0.479207,0.06428 -0.804679,0.403833 -0.982124,1.024629 -0.23015,0.805186 -0.179575,0.776806 -1.373582,0.770797 -1.226058,-0.0062 -1.963042,-0.190313 -3.083947,-0.770559 C 10.567553,13.603595 9.5696859,12.281613 9.4650034,11.192162 9.4290906,10.81841 9.3888502,10.738244 9.2152884,10.694683 8.8651912,10.606814 8.3121714,10.983747 8.176608,11.402638 7.9958344,11.961227 7.6885573,12.133172 6.8711254,12.133156 6.2781826,12.133144 6.1209681,12.09736 5.7073187,11.868256 4.0138608,10.930318 3.126949,7.9812093 4.1960801,6.8431715 4.414518,6.610655 4.9619617,6.5717089 5.5604512,6.7461079 c 0.1964672,0.05725 0.4570895,0.093097 0.5791608,0.07966 0.2724858,-0.029994 1.0333678,-0.4076058 1.1336067,-0.5625881 0.040313,-0.06233 0.073297,-0.6357512 0.073297,-1.2742694 0,-1.0334936 0.02209,-1.2022801 0.201224,-1.537495 0.1106732,-0.207104 0.2805284,-0.4189952 0.3774559,-0.4708692 0.3827043,-0.2048172 1.8771592,-0.062533 1.8771592,0.1787211 0,0.042089 0.2411192,0.4370017 0.5358202,0.877584 0.2947,0.4405824 0.535819,0.8432959 0.535819,0.8949189 0,0.051623 0.09042,0.2317105 0.200932,0.4001943 0.110513,0.1684839 0.26939,0.4314805 0.35306,0.5844369 0.101978,0.1864251 0.219734,0.2780813 0.357213,0.2780378 0.255245,-8.09e-5 1.457661,-0.7095041 2.422471,-1.4292543 0.918301,-0.6850545 1.65092,-0.9343489 2.716329,-0.9243088 0.639254,0.00602 0.812693,0.044468 1.313995,0.2912586 0.776851,0.3824427 0.966105,0.6629322 1.027232,1.522441 0.04386,0.6166903 0.06521,0.6763357 0.251594,0.7027789 0.114235,0.016207 0.486768,-0.1255688 0.84838,-0.322871 2.68676,-1.4659454 5.214351,-1.6506978 6.520902,-0.4766403 0.478296,0.4297936 1.017606,1.2746679 1.18816,1.8613515 0.253821,0.8731141 -0.06699,1.3465963 -1.081033,1.5955003 -0.988507,0.2426353 -1.473504,0.5468657 -1.473504,0.9243037 0,0.052142 0.267833,0.3863222 0.595185,0.7426232 0.65451,0.71239 1.022455,1.404263 1.078422,2.027835 0.07251,0.807869 -0.712346,1.603641 -1.940912,1.967913 -1.44143,0.427386 -3.285819,0.56039 -4.397194,0.317094 z"
       id="path2987"
       inkscape:connector-curvature="0"
       inkscape:export-xdpi="90"
       inkscape:export-ydpi="90" />
    <path
       style="fill:#ffffff;stroke:#ffffff;stroke-width:0.08930324"
       d="m 17.558538,22.594892 c -0.910399,-0.335016 -1.440423,-1.172431 -1.234068,-1.949776 0.144451,-0.544152 0.396204,-0.787216 0.81536,-0.787216 0.407201,0 1.12905,0.260409 1.474007,0.531752 0.313452,0.246562 0.797891,0.922596 0.871616,1.216341 0.0858,0.341845 -0.179404,0.81629 -0.515358,0.921973 -0.520785,0.163828 -1.076613,0.190181 -1.411557,0.06693 l 0,0 z"
       id="path2990"
       inkscape:connector-curvature="0"
       inkscape:export-xdpi="90"
       inkscape:export-ydpi="90" />
    <path
       style="fill:#ffffff;stroke:#ffffff;stroke-width:0.08930324"
       d="M 9.535083,28.288752 C 9.1591503,28.125727 8.8472023,27.846097 8.6775796,27.520088 8.5081604,27.194469 8.5115161,26.501026 8.682829,26.435287 8.7869232,26.395347 8.7948107,26.331375 8.721554,26.121231 8.647499,25.908796 8.663691,25.79046 8.80459,25.514389 c 0.2731742,-0.535245 0.4881214,-0.687492 0.8938023,-0.633078 0.8215447,0.110192 1.3273537,0.577662 1.5358687,1.419453 0.131817,0.532154 -0.0059,1.246747 -0.339424,1.761103 -0.2233,0.344381 -0.266475,0.36891 -0.643594,0.365649 -0.22233,-0.0019 -0.5446021,-0.06437 -0.7161602,-0.138764 l 0,0 z"
       id="path2992"
       inkscape:connector-curvature="0"
       inkscape:export-xdpi="90"
       inkscape:export-ydpi="90" />
  </g>
</svg>
